<svg width="59" height="89" fill="none" xmlns="http://www.w3.org/2000/svg"><g clip-path="url(#clip0)"><path d="M15.211 88.99c8.039 0 14.56-6.64 14.56-14.825V59.339H15.21c-8.038 0-14.558 6.64-14.558 14.826 0 8.185 6.52 14.825 14.558 14.825z" fill="#0ACF83"/><path d="M.653 44.496c0-8.186 6.52-14.826 14.558-14.826h14.56v29.67H15.21C7.173 59.32.653 52.681.653 44.495z" fill="#A259FF"/><path d="M.653 14.826C.653 6.64 7.173 0 15.21 0h14.56v29.67H15.21C7.173 29.67.653 23.012.653 14.826z" fill="#F24E1E"/><path d="M29.788 0h14.559c8.038 0 14.558 6.64 14.558 14.826S52.385 29.65 44.347 29.65H29.788V0z" fill="#FF7262"/><path d="M58.905 44.496c0 8.186-6.52 14.825-14.558 14.825-8.039 0-14.559-6.64-14.559-14.825 0-8.186 6.52-14.826 14.559-14.826 8.038 0 14.558 6.64 14.558 14.826z" fill="#1ABCFE"/></g><defs><clipPath id="clip0"><path fill="#fff" transform="translate(.653)" d="M0 0h58.252v88.991H0z"/></clipPath></defs></svg>